<svg width="1440" height="805" viewBox="0 0 1440 805" fill="none" xmlns="http://www.w3.org/2000/svg">
<path d="M0 0L34.3 48C68.6 96 137 192 206 240C274.3 288 343 288 411 288C480 288 549 288 617 277.3C685.7 267 754 245 823 197.3C891.4 149 960 75 1029 48C1097.1 21 1166 43 1234 53.3C1302.9 64 1371 64 1406 64H1440V320H1405.7C1371.4 320 1303 320 1234 320C1165.7 320 1097 320 1029 320C960 320 891 320 823 320C754.3 320 686 320 617 320C548.6 320 480 320 411 320C342.9 320 274 320 206 320C137.1 320 69 320 34 320H0V0Z" fill="#044BD9"/>
<path d="M1440 805L1405.7 757C1371.4 709 1303 613 1234 565C1165.7 517 1097 517 1029 517C960 517 891 517 823 527.7C754.3 538 686 560 617 607.7C548.6 656 480 730 411 757C342.9 784 274 762 206 751.7C137.1 741 69 741 34 741H0V485H34.3C68.6 485 137 485 206 485C274.3 485 343 485 411 485C480 485 549 485 617 485C685.7 485 754 485 823 485C891.4 485 960 485 1029 485C1097.1 485 1166 485 1234 485C1302.9 485 1371 485 1406 485H1440V805Z" fill="#044BD9"/>
<rect y="320" width="1440" height="165" fill="#044BD9"/>
</svg>
